<svg xmlns="http://www.w3.org/2000/svg" width="256" height="256" viewBox="0 0 100 100"><rect width="100" height="100" rx="20" fill="#bb6ee7"></rect><path d="M19.58 75.83L19.58 38.21Q20.30 38.03 21.70 37.76Q23.09 37.49 24.71 37.49L24.71 37.49Q27.95 37.49 29.44 38.66Q30.92 39.83 30.92 42.80L30.92 42.80L30.92 80.42Q30.20 80.60 28.80 80.87Q27.41 81.14 25.79 81.14L25.79 81.14Q22.55 81.14 21.07 79.97Q19.58 78.80 19.58 75.83L19.58 75.83ZM18.68 25.16L18.68 25.16Q18.68 22.55 20.52 20.71Q22.37 18.86 25.25 18.86L25.25 18.86Q28.13 18.86 29.93 20.71Q31.73 22.55 31.73 25.16L31.73 25.16Q31.73 27.86 29.93 29.71Q28.13 31.55 25.25 31.55L25.25 31.55Q22.37 31.55 20.52 29.71Q18.68 27.86 18.68 25.16ZM50.18 25.88L80.06 25.88Q80.51 26.60 80.91 27.82Q81.32 29.03 81.32 30.47L81.32 30.47Q81.32 32.90 80.19 34.16Q79.07 35.42 77.18 35.42L77.18 35.42L55.49 35.42L55.49 49.73L77 49.73Q77.45 50.45 77.85 51.62Q78.26 52.79 78.26 54.23L78.26 54.23Q78.26 56.66 77.13 57.88Q76.01 59.09 74.12 59.09L74.12 59.09L55.67 59.09L55.67 80.42Q54.86 80.60 53.38 80.87Q51.89 81.14 50.27 81.14L50.27 81.14Q46.85 81.14 45.41 79.88Q43.97 78.62 43.97 75.65L43.97 75.65L43.97 32.09Q43.97 29.21 45.63 27.55Q47.30 25.88 50.18 25.88L50.18 25.88Z" fill="#fff"></path></svg>